<svg width="57" height="10" viewBox="0 0 57 10" fill="none" xmlns="http://www.w3.org/2000/svg">
<g clip-path="url(#clip0_2778_9)">
<path d="M51.859 0.00753784H48.3284C45.5711 0.00753784 43.3362 2.24277 43.3362 4.99971C43.3362 7.75695 45.5714 9.99188 48.3284 9.99188H51.859C54.6162 9.99188 56.8511 7.75665 56.8511 4.99971C56.8511 2.24247 54.6162 0.00753784 51.859 0.00753784ZM54.0358 4.99971C54.0358 6.36072 52.9325 7.46404 51.5715 7.46404H48.6201C47.2591 7.46404 46.1557 6.36072 46.1557 4.99971C46.1557 3.6387 47.2591 2.53538 48.6201 2.53538H51.5715C52.9325 2.53538 54.0358 3.6387 54.0358 4.99971Z" fill="#171515"/>
<path d="M27.9588 0.110901V6.80878C27.9588 8.57107 26.5301 9.99982 24.7678 9.99982C23.775 9.99982 22.8387 9.53772 22.2348 8.74959L17.5401 2.62279C17.5109 2.58456 17.4657 2.56228 17.4179 2.56168C17.3312 2.56078 17.2607 2.63092 17.2607 2.71732V9.99982H14.4424V3.30495C14.4424 1.54115 15.8723 0.111202 17.6361 0.111202C18.6278 0.111202 19.5628 0.571796 20.1676 1.35751L24.8395 7.42982C24.8726 7.47287 24.9237 7.49816 24.9779 7.49816C25.0746 7.49816 25.1528 7.41959 25.1528 7.32295L25.1408 0.111202H27.9592L27.9588 0.110901Z" fill="#171515"/>
<path d="M37.2845 9.99187H34.2771V2.58474H28.9153V0.110779H42.4321V2.58474H37.2845V9.99187Z" fill="#171515"/>
<path d="M8.52211 0H4.9915C2.23426 0 -0.000976562 2.23523 -0.000976562 4.99217C-0.000976562 7.74941 2.23426 9.98435 4.9912 9.98435H8.52181C11.2791 9.98435 13.514 7.74911 13.514 4.99217C13.5143 2.23523 11.2791 0 8.52211 0ZM10.6986 4.99217C10.6986 6.35318 9.59533 7.4565 8.23432 7.4565H5.28291C3.9219 7.4565 2.81858 6.35318 2.81858 4.99217C2.81858 3.63116 3.9219 2.52785 5.28291 2.52785H8.23432C9.59533 2.52785 10.6986 3.63116 10.6986 4.99217Z" fill="#171515"/>
</g>
<defs>
<clipPath id="clip0_2778_9">
<rect width="56.8517" height="10" fill="white"/>
</clipPath>
</defs>
</svg>
